<svg version="1.2" baseProfile="tiny" id="Layer_1" xmlns="http://www.w3.org/2000/svg" xmlns:xlink="http://www.w3.org/1999/xlink"
	 x="0px" y="0px" viewBox="0 0 526.5 120.8" overflow="visible" xml:space="preserve">
<g>
	<path d="M267.2,112c-137.3,0-234.2-1.8-241.1-4.4c-10-3.8-18.4-45.6-17.4-74c0.5-13.7,3.2-22.7,7.2-23.9l0.1,0
		l0.1,0c1.7-0.8,11-1.2,27.4-1.2c15.1,0,35.4,0.3,59,0.7c32.2,0.5,68.6,1,106.7,1.1l3.2,0c38.8,0,79.8-0.5,119.5-1.1
		c35.6-0.5,69.3-0.9,97.9-0.9c36.1,0,58.8,0.7,71.5,2.3c12.8,14,23.3,79.1,12.8,98C497.8,110.8,375.7,112,267.2,112z"/>
	<path d="M429.7,9.7c35.5,0,58,0.7,70.8,2.2c5.7,6.7,11.5,25,14.4,46.2c3.1,21.7,2.3,40.6-1.8,49
		c-17,2-120.6,3.5-246,3.5c-134.9,0-233.8-1.8-240.5-4.3c-3-1.1-7.9-8.8-11.9-26.5C11.5,65,9.7,47.4,10.2,33.6
		c0.5-15.4,3.6-21.7,6.1-22.5l0.2,0l0.2-0.1c1-0.4,5.9-1.1,26.8-1.1c15.1,0,35.4,0.3,58.9,0.7c32.2,0.5,68.7,1,106.8,1.1l3.2,0
		c38.8,0,79.8-0.5,119.5-1.1C367.5,10.2,401.2,9.7,429.7,9.7 M429.7,6.7c-60.3,0-143.6,2-217.4,2c-1.1,0-2.1,0-3.2,0
		C142.6,8.6,78.8,7,43.5,7c-15.8,0-25.9,0.3-28,1.3c-16.4,5-6.2,94.5,10.2,100.8c8.2,3.1,124.4,4.5,241.6,4.5
		c116.9,0,234.9-1.4,247.9-3.7C526.5,91.1,515.7,23,502,9.1C488,7.3,462.2,6.7,429.7,6.7L429.7,6.7z"/>
	<path d="M429.7,6.7c32.5,0,58.2,0.6,72.3,2.3c13.7,13.9,24.5,82,13.1,100.8c-13,2.3-131,3.7-247.9,3.7
		c-117.2,0-233.4-1.4-241.6-4.5C9.3,102.7-0.9,13.3,15.4,8.3c2.2-1,12.3-1.3,28-1.3c35.3,0,99.1,1.7,165.7,1.7c1.1,0,2.1,0,3.2,0
		C286.2,8.7,369.5,6.7,429.7,6.7 M429.7,0.7c-28.7,0-62.3,0.4-98,0.9c-39.6,0.5-80.6,1.1-119.4,1.1l-3.2,0c-38,0-74.5-0.6-106.6-1.1
		C79,1.3,58.7,1,43.5,1c-23.2,0-27.8,0.7-30.1,1.7C5.8,5.2,1.8,15.2,1.2,33.3C0.7,47.8,2.6,66.3,6,81.7c1.8,8.2,4,15,6.4,20.3
		c3.2,6.9,6.8,11.1,11,12.7c2.2,0.8,6.8,2.6,82,3.8c42.3,0.7,99.8,1.1,161.8,1.1c113.2,0,235-1.3,248.9-3.8l2.7-0.5l1.4-2.3
		c3.2-5.3,5.1-13.6,5.6-24.6c0.4-9.3-0.3-20.2-1.9-31.6c-2.7-19.2-8.8-43-17.6-52l-1.5-1.5l-2.1-0.3C489.8,1.5,466.6,0.7,429.7,0.7
		L429.7,0.7z"/>
</g>
</svg>
